HIERARCHY
ROOT hip
{
	OFFSET 0.000000 0.000000 0.000000
	CHANNELS 6 Xposition Yposition Zposition Xrotation Zrotation Yrotation 
	JOINT abdomen
	{
		OFFSET 0.000000 3.422050 0.000000
		CHANNELS 3 Xrotation Zrotation Yrotation 
		JOINT chest
		{
			OFFSET 0.000000 8.486693 -0.684411
			CHANNELS 3 Xrotation Zrotation Yrotation 
			JOINT neck
			{
				OFFSET 0.000000 10.266162 -0.273764
				CHANNELS 3 Xrotation Zrotation Yrotation 
				JOINT head
				{
					OFFSET 0.000000 3.148285 0.000000
					CHANNELS 3 Xrotation Zrotation Yrotation 
					End Site
					{
						OFFSET 0.000000 3.148289 0.000000
					}
				}
			}
			JOINT lCollar
			{
				OFFSET 3.422053 6.707223 -0.821293
				CHANNELS 3 Yrotation Zrotation Xrotation 
				JOINT lShldr
				{
					OFFSET 3.285171 0.000000 0.000000
					CHANNELS 3 Zrotation Yrotation Xrotation 
					JOINT lForeArm
					{
						OFFSET 10.129278 0.000000 0.000000
						CHANNELS 3 Yrotation Zrotation Xrotation 
						JOINT lHand
						{
							OFFSET 8.486692 0.000000 0.000000
							CHANNELS 3 Zrotation Yrotation Xrotation 
							End Site
							{
								OFFSET 4.106464 0.000000 0.000000
							}
						}
					}
				}
			}
			JOINT rCollar
			{
				OFFSET -3.558935 6.707223 -0.821293
				CHANNELS 3 Yrotation Zrotation Xrotation 
				JOINT rShldr
				{
					OFFSET -3.148289 0.000000 0.000000
					CHANNELS 3 Zrotation Yrotation Xrotation 
					JOINT rForeArm
					{
						OFFSET -10.266159 0.000000 0.000000
						CHANNELS 3 Yrotation Zrotation Xrotation 
						JOINT rHand
						{
							OFFSET -8.349810 0.000000 0.000000
							CHANNELS 3 Zrotation Yrotation Xrotation 
							End Site
							{
								OFFSET -4.106464 0.000000 0.000000
							}
						}
					}
				}
			}
		}
	}
	JOINT lThigh
	{
		OFFSET 5.338403 -1.642589 1.368821
		CHANNELS 3 Xrotation Zrotation Yrotation 
		JOINT lShin
		{
			OFFSET -2.053232 -20.121670 0.000000
			CHANNELS 3 Xrotation Zrotation Yrotation 
			JOINT lFoot
			{
				OFFSET 0.000000 -19.300380 -1.231939
				CHANNELS 3 Xrotation Yrotation Zrotation 
				End Site
				{
					OFFSET 0.000000 -2.463878 4.653993
				}
			}
		}
	}
	JOINT rThigh
	{
		OFFSET -5.338403 -1.642589 1.368821
		CHANNELS 3 Xrotation Zrotation Yrotation 
		JOINT rShin
		{
			OFFSET 2.053232 -20.121670 0.000000
			CHANNELS 3 Xrotation Zrotation Yrotation 
			JOINT rFoot
			{
				OFFSET 0.000000 -19.300380 -1.231939
				CHANNELS 3 Xrotation Yrotation Zrotation 
				End Site
				{
					OFFSET 0.000000 -2.463878 4.653993
				}
			}
		}
	}
}
MOTION
Frames: 19
Frame Time: 0.033264
0.000000 18.546413 -28.039886 70.997055 0.000000 0.000000 3.347026 -0.684445 -0.822954 23.608047 11.690372 -0.326293 -5.833322 3.123385 0.231399 -25.331631 10.238256 7.201120 22.353991 -19.023773 16.234575 -5.759688 -56.455036 -44.234375 -119.415993 -15.416789 55.551399 18.364614 37.399982 -52.796829 17.991323 -7.087875 -11.817877 22.861721 52.783489 -50.117558 100.701218 -19.291492 34.140388 4.760125 -17.340620 -10.027477 -88.227638 36.072220 -17.393200 114.864029 -12.765610 2.893041 29.204950 5.071393 5.469505 -88.230293 -36.077126 17.394232 114.863838 12.766693 -2.897921 29.204718 -5.075662 -5.472044 
0.000000 18.546413 -28.039886 70.997055 0.000000 0.000000 3.347026 -0.684445 -0.822954 23.608047 11.690372 -0.326293 -5.833322 3.123385 0.231399 -25.072386 10.240929 7.204318 22.353991 -19.023773 16.234575 -5.759682 -56.455032 -44.234379 -119.415993 -15.416789 55.551399 18.364614 37.399982 -52.796829 17.991323 -7.087875 -11.817877 23.357088 53.152622 -49.771866 100.399017 -19.617157 34.391064 4.975835 -17.347364 -10.028686 -88.227638 36.072220 -17.393200 114.864029 -12.765610 2.893041 29.204950 5.071393 5.469505 -88.230293 -36.077126 17.394232 114.863838 12.766693 -2.897921 29.204718 -5.075662 -5.472043 
0.000000 18.546413 -28.039886 70.997055 0.000000 0.000000 3.347026 -0.684445 -0.822954 23.608047 11.690372 -0.326293 -5.833322 3.123385 0.231399 -24.813206 10.243591 7.207527 22.353994 -19.023773 16.234575 -5.759682 -56.455032 -44.234379 -119.415993 -15.416789 55.551399 18.364614 37.399982 -52.796829 17.991323 -7.087874 -11.817876 23.860331 53.519791 -49.417927 100.097855 -19.943922 34.640320 5.191538 -17.354109 -10.029924 -88.227638 36.072220 -17.393200 114.864029 -12.765610 2.893041 29.204950 5.071393 5.469505 -88.230293 -36.077126 17.394232 114.863838 12.766693 -2.897921 29.204718 -5.075662 -5.472043 
0.000000 18.546413 -28.039886 70.997055 0.000000 0.000000 3.347026 -0.684445 -0.822954 23.608047 11.690372 -0.326293 -5.833322 3.123385 0.231399 -24.554087 10.246236 7.210749 22.353991 -19.023773 16.234575 -5.759682 -56.455032 -44.234379 -119.415993 -15.416789 55.551399 18.364614 37.399982 -52.796829 17.991323 -7.087875 -11.817877 24.371593 53.884937 -49.055588 99.797737 -20.271736 34.888123 5.407232 -17.360846 -10.031189 -88.227638 36.072220 -17.393200 114.864029 -12.765610 2.893041 29.204950 5.071393 5.469505 -88.230293 -36.077126 17.394232 114.863838 12.766693 -2.897921 29.204718 -5.075662 -5.472043 
0.000000 18.546413 -28.039886 70.997055 0.000000 0.000000 3.347026 -0.684445 -0.822954 23.608047 11.690372 -0.326293 -5.833322 3.123385 0.231399 -24.295033 10.248866 7.213982 22.353994 -19.023773 16.234575 -5.759685 -56.455036 -44.234375 -119.415993 -15.416789 55.551399 18.364614 37.399982 -52.796829 17.991323 -7.087875 -11.817877 24.891075 54.247971 -48.684639 99.498672 -20.600573 35.134483 5.622918 -17.367577 -10.032480 -88.227638 36.072220 -17.393200 114.864029 -12.765610 2.893041 29.204950 5.071393 5.469505 -88.230293 -36.077126 17.394232 114.863838 12.766693 -2.897921 29.204718 -5.075662 -5.472043 
0.000000 18.546413 -28.039886 70.997055 0.000000 0.000000 3.347026 -0.684445 -0.822954 23.608047 11.690372 -0.326293 -5.833322 3.123385 0.231399 -24.036037 10.251480 7.217224 22.353991 -19.023773 16.234575 -5.759685 -56.455036 -44.234375 -119.415993 -15.416789 55.551399 18.364614 37.399982 -52.796829 17.991323 -7.087875 -11.817877 25.418989 54.608856 -48.304913 99.200630 -20.930405 35.379375 5.838590 -17.374304 -10.033798 -88.227638 36.072220 -17.393200 114.864029 -12.765610 2.893041 29.204950 5.071393 5.469505 -88.230293 -36.077126 17.394232 114.863838 12.766693 -2.897921 29.204718 -5.075662 -5.472043 
0.000000 18.546413 -28.039886 70.997055 0.000000 0.000000 3.347026 -0.684445 -0.822954 23.608047 11.690372 -0.326293 -5.833322 3.123385 0.231399 -23.777122 10.254082 7.220480 22.353991 -19.023773 16.234575 -5.759685 -56.455036 -44.234375 -119.415993 -15.416789 55.551399 18.364614 37.399982 -52.796829 17.991325 -7.087875 -11.817878 25.955524 54.967506 -47.916214 98.903664 -21.261206 35.622826 6.054249 -17.381025 -10.035141 -88.227638 36.072220 -17.393200 114.864029 -12.765610 2.893041 29.204950 5.071393 5.469505 -88.230293 -36.077126 17.394232 114.863838 12.766693 -2.897921 29.204718 -5.075662 -5.472044 
0.000000 18.546413 -28.039886 70.997055 0.000000 0.000000 3.347026 -0.684445 -0.822954 23.608047 11.690372 -0.326293 -5.833322 3.123385 0.231399 -23.518276 10.256667 7.223746 22.353991 -19.023773 16.234575 -5.759685 -56.455036 -44.234375 -119.415993 -15.416789 55.551399 18.364614 37.399982 -52.796829 17.991323 -7.087875 -11.817877 26.500853 55.323837 -47.518341 98.607735 -21.592939 35.864799 6.269893 -17.387739 -10.036511 -88.227638 36.072220 -17.393200 114.864029 -12.765610 2.893041 29.204950 5.071393 5.469505 -88.230293 -36.077126 17.394232 114.863838 12.766693 -2.897921 29.204718 -5.075662 -5.472043 
0.000000 18.546413 -28.039886 70.997055 0.000000 0.000000 3.347026 -0.684445 -0.822954 23.608047 11.690372 -0.326293 -5.833322 3.123385 0.231399 -23.259495 10.259233 7.227020 22.353991 -19.023773 16.234575 -5.759688 -56.455040 -44.234379 -119.415993 -15.416789 55.551399 18.364614 37.399982 -52.796829 17.991323 -7.087875 -11.817877 27.055176 55.677738 -47.111069 98.312859 -21.925581 36.105312 6.485521 -17.394449 -10.037907 -88.227638 36.072220 -17.393200 114.864029 -12.765610 2.893041 29.204950 5.071393 5.469505 -88.230293 -36.077126 17.394232 114.863838 12.766693 -2.897921 29.204718 -5.075662 -5.472044 
0.000000 18.546413 -28.039886 70.997055 0.000000 0.000000 3.347026 -0.684445 -0.822954 23.608047 11.690372 -0.326293 -5.833322 3.123385 0.231399 -23.000799 10.261787 7.230308 22.353989 -19.023773 16.234575 -5.759685 -56.455036 -44.234375 -119.415993 -15.416789 55.551399 18.364614 37.399982 -52.796829 17.991323 -7.087874 -11.817876 27.618727 56.029205 -46.694252 98.019043 -22.259098 36.344349 6.701132 -17.401152 -10.039330 -88.227638 36.072220 -17.393200 114.864029 -12.765610 2.893041 29.204950 5.071393 5.469505 -88.230293 -36.077126 17.394232 114.863838 12.766693 -2.897921 29.204718 -5.075662 -5.472043 
0.000000 18.546413 -28.039886 70.997055 0.000000 0.000000 3.347026 -0.684445 -0.822954 23.608047 11.690372 -0.326293 -5.833322 3.123385 0.231399 -22.742180 10.264327 7.233606 22.353991 -19.023773 16.234575 -5.759688 -56.455040 -44.234379 -119.415993 -15.416789 55.551399 18.364614 37.399982 -52.796829 17.991323 -7.087875 -11.817877 28.191690 56.378105 -46.267635 97.726265 -22.593462 36.581902 6.916724 -17.407854 -10.040781 -88.227638 36.072220 -17.393200 114.864029 -12.765610 2.893041 29.204950 5.071393 5.469505 -88.230293 -36.077126 17.394232 114.863838 12.766693 -2.897921 29.204718 -5.075662 -5.472043 
0.000000 18.546413 -28.039886 70.997055 0.000000 0.000000 3.347026 -0.684445 -0.822954 23.608047 11.690372 -0.326293 -5.833322 3.123385 0.231399 -22.483646 10.266850 7.236915 22.353991 -19.023773 16.234575 -5.759685 -56.455036 -44.234375 -119.415993 -15.416789 55.551399 18.364614 37.399982 -52.796829 17.991323 -7.087875 -11.817877 28.774273 56.724361 -45.831036 97.434525 -22.928637 36.817963 7.132295 -17.414545 -10.042257 -88.227638 36.072220 -17.393200 114.864029 -12.765610 2.893041 29.204950 5.071393 5.469505 -88.230293 -36.077126 17.394232 114.863838 12.766693 -2.897921 29.204714 -5.075662 -5.472043 
0.000000 18.546413 -28.039886 70.997055 0.000000 0.000000 3.347026 -0.684445 -0.822954 23.608047 11.690372 -0.326293 -5.833322 3.123385 0.231399 -22.225193 10.269358 7.240234 22.353992 -19.023775 16.234575 -5.759685 -56.455036 -44.234375 -119.415993 -15.416789 55.551399 18.364614 37.399982 -52.796829 17.991323 -7.087875 -11.817877 29.366686 57.067917 -45.384274 97.143852 -23.264595 37.052532 7.347842 -17.421230 -10.043758 -88.227638 36.072220 -17.393200 114.864029 -12.765610 2.893041 29.204950 5.071393 5.469505 -88.230293 -36.077126 17.394232 114.863838 12.766693 -2.897921 29.204718 -5.075662 -5.472043 
0.000000 18.546413 -28.039886 70.997055 0.000000 0.000000 3.347026 -0.684445 -0.822954 23.608047 11.690372 -0.326293 -5.833322 3.123385 0.231399 -21.966827 10.271849 7.243563 22.353991 -19.023773 16.234575 -5.759685 -56.455036 -44.234375 -119.415993 -15.416789 55.551399 18.364614 37.399982 -52.796829 17.991325 -7.087875 -11.817878 29.969131 57.408642 -44.927086 96.854225 -23.601316 37.285618 7.563366 -17.427910 -10.045287 -88.227638 36.072220 -17.393200 114.864029 -12.765610 2.893041 29.204950 5.071393 5.469505 -88.230293 -36.077126 17.394232 114.863838 12.766693 -2.897921 29.204714 -5.075662 -5.472043 
0.000000 18.546413 -28.039886 70.997055 0.000000 0.000000 3.347026 -0.684445 -0.822954 23.608047 11.690372 -0.326293 -5.833322 3.123385 0.231399 -21.708555 10.274325 7.246902 22.353991 -19.023773 16.234575 -5.759685 -56.455036 -44.234375 -119.415993 -15.416789 55.551399 18.364614 37.399982 -52.796829 17.991323 -7.087875 -11.817877 30.581827 57.746464 -44.459274 96.565643 -23.938761 37.517204 7.778863 -17.434582 -10.046841 -88.227638 36.072220 -17.393200 114.864029 -12.765610 2.893041 29.204950 5.071393 5.469505 -88.230293 -36.077126 17.394232 114.863838 12.766693 -2.897921 29.204718 -5.075662 -5.472043 
0.000000 18.546413 -28.039886 70.997055 0.000000 0.000000 3.347026 -0.684445 -0.822954 23.608047 11.690372 -0.326293 -5.833322 3.123385 0.231399 -21.450369 10.276783 7.250250 22.353994 -19.023773 16.234575 -5.759685 -56.455036 -44.234375 -119.415993 -15.416789 55.551399 18.364614 37.399982 -52.796829 17.991323 -7.087875 -11.817877 31.204990 58.081322 -43.980679 96.278107 -24.276897 37.747280 7.994335 -17.441246 -10.048419 -88.227638 36.072220 -17.393200 114.864029 -12.765610 2.893041 29.204950 5.071393 5.469505 -88.230293 -36.077126 17.394232 114.863838 12.766693 -2.897921 29.204714 -5.075662 -5.472043 
0.000000 18.546413 -28.039886 70.997055 0.000000 0.000000 3.347026 -0.684445 -0.822954 23.608047 11.690372 -0.326293 -5.833322 3.123385 0.231399 -21.192286 10.279230 7.253612 22.353991 -19.023771 16.234575 -5.759685 -56.455036 -44.234375 -119.415993 -15.416789 55.551399 18.364614 37.399982 -52.796829 17.991323 -7.087874 -11.817876 31.838821 58.413055 -43.491013 95.991615 -24.615704 37.975853 8.209778 -17.447906 -10.050026 -88.227638 36.072220 -17.393200 114.864029 -12.765610 2.893041 29.204950 5.071393 5.469505 -88.230293 -36.077126 17.394232 114.863838 12.766693 -2.897921 29.204718 -5.075662 -5.472043 
0.000000 18.546413 -28.039886 70.997055 0.000000 0.000000 3.347026 -0.684445 -0.822954 23.608047 11.690372 -0.326293 -5.833322 3.123385 0.231399 -20.934299 10.281660 7.256982 22.353991 -19.023773 16.234575 -5.759685 -56.455036 -44.234375 -119.415993 -15.416789 55.551399 18.364614 37.399982 -52.796829 17.991323 -7.087875 -11.817877 32.483551 58.741650 -42.990116 95.706154 -24.955147 38.202908 8.425192 -17.454559 -10.051659 -88.227638 36.072220 -17.393200 114.864029 -12.765610 2.893041 29.204950 5.071393 5.469505 -88.230293 -36.077126 17.394232 114.863838 12.766693 -2.897921 29.204718 -5.075662 -5.472044 
0.000000 18.546413 -28.039886 70.997055 0.000000 0.000000 3.347026 -0.684445 -0.822954 23.608047 11.690372 -0.326293 -5.833322 3.123385 0.231399 -20.676405 10.284070 7.260359 22.353991 -19.023773 16.234575 -5.759685 -56.455036 -44.234375 -119.415993 -15.416789 55.551399 18.364614 37.399982 -52.796829 17.991323 -7.087875 -11.817877 33.139378 59.066944 -42.477753 95.421730 -25.295187 38.428444 8.640574 -17.461203 -10.053316 -88.227638 36.072220 -17.393200 114.864029 -12.765610 2.893041 29.204950 5.071393 5.469505 -88.230293 -36.077126 17.394232 114.863838 12.766693 -2.897921 29.204718 -5.075662 -5.472043 
